<svg xmlns="http://www.w3.org/2000/svg" xmlns:xlink="http://www.w3.org/1999/xlink" width="450" zoomAndPan="magnify" viewBox="0 0 337.5 74.999997" height="100" preserveAspectRatio="xMidYMid meet" version="1.0"><defs><g/><clipPath id="85476f3365"><path d="M 0 0.0546875 L 141 0.0546875 L 141 74 L 0 74 Z M 0 0.0546875 " clip-rule="nonzero"/></clipPath><clipPath id="593f2eaa10"><path d="M 119 0.0546875 L 243 0.0546875 L 243 74.945312 L 119 74.945312 Z M 119 0.0546875 " clip-rule="nonzero"/></clipPath><clipPath id="ebafcef247"><path d="M 288 14 L 337 14 L 337 73 L 288 73 Z M 288 14 " clip-rule="nonzero"/></clipPath><clipPath id="e385cd7b61"><path d="M 230.832031 24.3125 L 298.230469 24.3125 L 298.230469 63.253906 L 230.832031 63.253906 Z M 230.832031 24.3125 " clip-rule="nonzero"/></clipPath></defs><g clip-path="url(#85476f3365)"><path stroke-linecap="butt" transform="matrix(0.98915, 0, 0, 0.98915, -0.498477, -12.186509)" fill="none" stroke-linejoin="miter" d="M 5.910263 22.520713 L 15.478931 22.520713 L 31.220041 49.777397 L 31.780813 49.777397 L 47.525873 22.520713 L 57.161676 22.520713 L 57.161676 74.001174 L 47.525873 74.001174 L 47.525873 48.620311 L 48.106391 40.003376 L 47.525873 40.003376 L 34.450405 63.066117 L 28.621534 63.066117 L 15.478931 40.003376 L 14.898413 40.003376 L 15.478931 48.620311 L 15.478931 74.001174 L 5.910263 74.001174 Z M 94.828187 65.522457 C 93.201158 68.389503 91.005459 70.711574 88.245038 72.488669 C 85.496465 74.269713 82.131832 75.15826 78.15114 75.15826 C 75.461803 75.15826 72.97387 74.692266 70.69524 73.752381 C 68.424508 72.816444 66.446009 71.513241 64.759743 69.838823 C 63.089274 68.156507 61.782122 66.178008 60.846186 63.907275 C 59.922097 61.624696 59.460052 59.117018 59.460052 56.380292 C 59.460052 53.841021 59.910249 51.436019 60.810644 49.165287 C 61.722886 46.882708 62.994496 44.892361 64.621525 43.198198 C 66.260401 41.488238 68.187562 40.133696 70.410905 39.126676 C 72.646095 38.119656 75.106384 37.61812 77.783874 37.61812 C 80.615378 37.61812 83.130954 38.084114 85.330603 39.02005 C 87.542098 39.955987 89.390277 41.255241 90.879087 42.917812 C 92.363949 44.564586 93.485493 46.51939 94.247669 48.778275 C 95.017744 51.025313 95.404756 53.465856 95.404756 56.095957 C 95.404756 56.435579 95.404756 56.723863 95.404756 56.95686 C 95.357366 57.249094 95.333672 57.513683 95.333672 57.74668 C 95.278384 57.991524 95.246792 58.256114 95.246792 58.5365 L 68.728588 58.5365 C 68.914196 59.977921 69.305157 61.210041 69.90542 62.240755 C 70.513581 63.27147 71.256012 64.136323 72.132712 64.839263 C 73.02126 65.530355 73.992738 66.031891 75.047148 66.347819 C 76.109455 66.6519 77.191509 66.805915 78.293307 66.805915 C 80.445567 66.805915 82.23056 66.312277 83.644337 65.328951 C 85.062064 64.345626 86.171761 63.113506 86.981326 61.624696 Z M 86.26259 51.850675 C 86.215201 51.230666 86.009848 50.539574 85.646531 49.777397 C 85.295061 49.007323 84.769831 48.288587 84.066891 47.621189 C 83.375798 46.941944 82.518844 46.393019 81.488129 45.970466 C 80.457414 45.536065 79.221346 45.322813 77.783874 45.322813 C 75.769833 45.322813 74.000636 45.895433 72.464437 47.040672 C 70.932186 48.189859 69.858031 49.789245 69.238022 51.850675 Z M 122.772015 69.751943 L 122.211243 69.751943 C 121.34639 71.236804 119.999747 72.512363 118.175263 73.57862 C 116.362627 74.63303 114.107691 75.15826 111.418354 75.15826 C 109.171316 75.15826 107.030904 74.692266 104.993169 73.752381 C 102.959383 72.816444 101.154644 71.525088 99.586852 69.874365 C 98.030907 68.215743 96.798788 66.237244 95.886546 63.942817 C 94.986151 61.636543 94.532005 59.117018 94.532005 56.380292 C 94.532005 53.651464 94.986151 51.143786 95.886546 48.849359 C 96.798788 46.543085 98.030907 44.564586 99.586852 42.917812 C 101.154644 41.255241 102.959383 39.955987 104.993169 39.02005 C 107.030904 38.084114 109.171316 37.61812 111.418354 37.61812 C 114.107691 37.61812 116.362627 38.147299 118.175263 39.213556 C 119.999747 40.267966 121.34639 41.535627 122.211243 43.020488 L 122.772015 43.020488 L 122.211243 37.985386 L 122.211243 22.520713 L 131.617998 22.520713 L 131.617998 74.001174 L 122.772015 74.001174 Z M 113.36526 66.454445 C 114.605277 66.454445 115.790007 66.225397 116.911551 65.767301 C 118.044943 65.313155 119.040116 64.657604 119.897071 63.804599 C 120.761923 62.935797 121.456965 61.885337 121.982195 60.645319 C 122.511374 59.393455 122.772015 57.971779 122.772015 56.380292 C 122.772015 54.800652 122.511374 53.390824 121.982195 52.146857 C 121.456965 50.894993 120.761923 49.844532 119.897071 48.987578 C 119.040116 48.122725 118.044943 47.463225 116.911551 47.00513 C 115.790007 46.550983 114.605277 46.321935 113.36526 46.321935 C 112.113396 46.321935 110.928666 46.56283 109.803172 47.040672 C 108.681628 47.522462 107.686455 48.193809 106.821602 49.058661 C 105.9528 49.915616 105.257759 50.966076 104.732529 52.217941 C 104.203349 53.457958 103.942709 54.844092 103.942709 56.380292 C 103.942709 57.92439 104.203349 59.322371 104.732529 60.574235 C 105.257759 61.814253 105.9528 62.864713 106.821602 63.733515 C 107.686455 64.586521 108.681628 65.253918 109.803172 65.731759 C 110.928666 66.21355 112.113396 66.454445 113.36526 66.454445 Z M 113.36526 66.454445 " stroke="#0f503c" stroke-width="1.977247" stroke-opacity="1" stroke-miterlimit="4"/></g><g fill="#0f503c" fill-opacity="1"><g transform="translate(0.227929, 61.010558)"><g><path d="M 5.125 -50.921875 L 14.578125 -50.921875 L 30.15625 -23.96875 L 30.71875 -23.96875 L 46.296875 -50.921875 L 55.828125 -50.921875 L 55.828125 0 L 46.296875 0 L 46.296875 -25.109375 L 46.859375 -33.640625 L 46.296875 -33.640625 L 33.34375 -10.8125 L 27.59375 -10.8125 L 14.578125 -33.640625 L 14.015625 -33.640625 L 14.578125 -25.109375 L 14.578125 0 L 5.125 0 Z M 5.125 -50.921875 "/></g></g></g><g fill="#0f503c" fill-opacity="1"><g transform="translate(56.320385, 61.010558)"><g><path d="M 36.984375 -8.390625 C 35.367188 -5.546875 33.195312 -3.242188 30.46875 -1.484375 C 27.738281 0.265625 24.410156 1.140625 20.484375 1.140625 C 17.828125 1.140625 15.367188 0.675781 13.109375 -0.25 C 10.859375 -1.175781 8.90625 -2.46875 7.25 -4.125 C 5.59375 -5.78125 4.300781 -7.734375 3.375 -9.984375 C 2.445312 -12.242188 1.984375 -14.722656 1.984375 -17.421875 C 1.984375 -19.929688 2.429688 -22.3125 3.328125 -24.5625 C 4.234375 -26.820312 5.492188 -28.789062 7.109375 -30.46875 C 8.722656 -32.15625 10.628906 -33.492188 12.828125 -34.484375 C 15.035156 -35.484375 17.46875 -35.984375 20.125 -35.984375 C 22.914062 -35.984375 25.398438 -35.519531 27.578125 -34.59375 C 29.765625 -33.664062 31.59375 -32.382812 33.0625 -30.75 C 34.53125 -29.113281 35.644531 -27.179688 36.40625 -24.953125 C 37.164062 -22.734375 37.546875 -20.316406 37.546875 -17.703125 C 37.546875 -17.367188 37.546875 -17.085938 37.546875 -16.859375 C 37.492188 -16.566406 37.46875 -16.304688 37.46875 -16.078125 C 37.425781 -15.835938 37.40625 -15.570312 37.40625 -15.28125 L 11.171875 -15.28125 C 11.359375 -13.863281 11.742188 -12.644531 12.328125 -11.625 C 12.921875 -10.601562 13.65625 -9.75 14.53125 -9.0625 C 15.414062 -8.375 16.378906 -7.875 17.421875 -7.5625 C 18.460938 -7.257812 19.53125 -7.109375 20.625 -7.109375 C 22.757812 -7.109375 24.523438 -7.59375 25.921875 -8.5625 C 27.316406 -9.539062 28.414062 -10.765625 29.21875 -12.234375 Z M 28.515625 -21.90625 C 28.460938 -22.519531 28.257812 -23.207031 27.90625 -23.96875 C 27.550781 -24.726562 27.03125 -25.4375 26.34375 -26.09375 C 25.65625 -26.757812 24.800781 -27.304688 23.78125 -27.734375 C 22.757812 -28.160156 21.539062 -28.375 20.125 -28.375 C 18.132812 -28.375 16.378906 -27.800781 14.859375 -26.65625 C 13.347656 -25.519531 12.28125 -23.9375 11.65625 -21.90625 Z M 28.515625 -21.90625 "/></g></g></g><g fill="#0f503c" fill-opacity="1"><g transform="translate(91.013183, 61.010558)"><g><path d="M 29.9375 -4.203125 L 29.375 -4.203125 C 28.519531 -2.722656 27.191406 -1.460938 25.390625 -0.421875 C 23.585938 0.617188 21.359375 1.140625 18.703125 1.140625 C 16.472656 1.140625 14.347656 0.675781 12.328125 -0.25 C 10.316406 -1.175781 8.539062 -2.457031 7 -4.09375 C 5.457031 -5.726562 4.234375 -7.679688 3.328125 -9.953125 C 2.429688 -12.234375 1.984375 -14.722656 1.984375 -17.421875 C 1.984375 -20.117188 2.429688 -22.601562 3.328125 -24.875 C 4.234375 -27.15625 5.457031 -29.113281 7 -30.75 C 8.539062 -32.382812 10.316406 -33.664062 12.328125 -34.59375 C 14.347656 -35.519531 16.472656 -35.984375 18.703125 -35.984375 C 21.359375 -35.984375 23.585938 -35.460938 25.390625 -34.421875 C 27.191406 -33.378906 28.519531 -32.117188 29.375 -30.640625 L 29.9375 -30.640625 L 29.375 -35.625 L 29.375 -50.921875 L 38.6875 -50.921875 L 38.6875 0 L 29.9375 0 Z M 20.625 -7.46875 C 21.851562 -7.46875 23.023438 -7.691406 24.140625 -8.140625 C 25.253906 -8.585938 26.238281 -9.238281 27.09375 -10.09375 C 27.945312 -10.945312 28.632812 -11.988281 29.15625 -13.21875 C 29.675781 -14.457031 29.9375 -15.859375 29.9375 -17.421875 C 29.9375 -18.984375 29.675781 -20.378906 29.15625 -21.609375 C 28.632812 -22.847656 27.945312 -23.894531 27.09375 -24.75 C 26.238281 -25.601562 25.253906 -26.253906 24.140625 -26.703125 C 23.023438 -27.148438 21.851562 -27.375 20.625 -27.375 C 19.382812 -27.375 18.207031 -27.132812 17.09375 -26.65625 C 15.988281 -26.1875 15.007812 -25.523438 14.15625 -24.671875 C 13.300781 -23.816406 12.613281 -22.773438 12.09375 -21.546875 C 11.570312 -20.316406 11.3125 -18.941406 11.3125 -17.421875 C 11.3125 -15.898438 11.570312 -14.523438 12.09375 -13.296875 C 12.613281 -12.066406 13.300781 -11.023438 14.15625 -10.171875 C 15.007812 -9.316406 15.988281 -8.648438 17.09375 -8.171875 C 18.207031 -7.703125 19.382812 -7.46875 20.625 -7.46875 Z M 20.625 -7.46875 "/></g></g></g><g clip-path="url(#593f2eaa10)"><path stroke-linecap="butt" transform="matrix(0.680637, 0, 0, 0.680637, 129.226043, -12.186511)" fill="none" stroke-linejoin="miter" d="M 1.251889 34.180676 L 16.506439 34.180676 L 31.961857 79.226936 L 34.693673 88.822725 L 35.537322 88.822725 L 38.44131 79.226936 L 54.539509 34.180676 L 69.794059 34.180676 L 42.527555 109.00143 L 27.680482 109.00143 Z M 77.415594 50.376439 C 76.239077 50.376439 75.108473 50.158353 74.018042 49.716442 C 72.950568 49.257313 72.015094 48.626011 71.211618 47.828275 C 70.413882 47.0248 69.78832 46.106543 69.329191 45.073503 C 68.870062 44.017507 68.640498 42.858207 68.640498 41.601343 C 68.640498 40.344478 68.870062 39.196656 69.329191 38.157878 C 69.78832 37.101882 70.413882 36.177885 71.211618 35.380149 C 72.015094 34.576674 72.950568 33.956851 74.018042 33.514939 C 75.108473 33.055811 76.239077 32.826246 77.415594 32.826246 C 79.860455 32.826246 81.955229 33.687112 83.68844 35.403106 C 85.438868 37.101882 86.316951 39.167961 86.316951 41.601343 C 86.316951 44.034725 85.438868 46.106543 83.68844 47.828275 C 81.955229 49.527051 79.860455 50.376439 77.415594 50.376439 Z M 70.626229 109.00143 L 70.626229 57.802845 L 84.325481 57.802845 L 84.325481 109.00143 Z M 110.025208 110.682989 C 106.673568 110.682989 103.689232 110.258295 101.06646 109.408907 C 98.466644 108.576736 96.205435 107.480566 94.282834 106.114659 C 92.37745 104.75449 90.76476 103.193453 89.433287 101.425807 C 88.107553 99.652423 87.09747 97.861821 86.397299 96.042524 L 98.644556 90.808457 C 99.821073 93.465664 101.399328 95.439917 103.390798 96.731217 C 105.382269 98.005299 107.591826 98.64234 110.025208 98.64234 C 112.52172 98.64234 114.501712 98.194689 115.965185 97.293649 C 117.428657 96.38687 118.157524 95.307918 118.157524 94.051053 C 118.157524 92.65645 117.549178 91.525845 116.321009 90.65924 C 115.115797 89.792635 113.015283 89.006377 110.025208 88.311945 L 102.805409 86.756647 C 101.204198 86.395083 99.545596 85.838389 97.829603 85.069349 C 96.130826 84.306047 94.581267 83.336138 93.186664 82.16536 C 91.809278 80.971625 90.661456 79.542587 89.743199 77.878246 C 88.842159 76.190948 88.388769 74.239651 88.388769 72.012877 C 88.388769 69.510626 88.928246 67.283852 89.99572 65.326816 C 91.08615 63.36978 92.56684 61.711178 94.43779 60.351009 C 96.325956 58.990841 98.535513 57.946323 101.06646 57.211717 C 103.620363 56.48285 106.357917 56.115548 109.284863 56.115548 C 114.163105 56.115548 118.519088 57.079718 122.341334 59.002319 C 126.186536 60.919181 129.010178 63.966648 130.812258 68.13324 L 119.001173 72.954091 C 118.031264 70.928186 116.602226 69.470452 114.714059 68.563673 C 112.84311 67.662633 110.966421 67.214983 109.078255 67.214983 C 107.121219 67.214983 105.410965 67.61672 103.953231 68.414457 C 102.489758 69.212193 101.755153 70.239493 101.755153 71.502097 C 101.755153 72.672875 102.369237 73.60835 103.591667 74.308521 C 104.819836 75.002953 106.478439 75.634255 108.567474 76.190948 L 116.401357 78.079115 C 121.623945 79.324501 125.497843 81.321711 128.034529 84.076483 C 130.582693 86.831255 131.856775 90.091068 131.856775 93.844445 C 131.856775 96.076958 131.334516 98.200428 130.278521 100.226334 C 129.239742 102.2465 127.759052 104.042841 125.836451 105.609617 C 123.936806 107.170655 121.635424 108.404563 118.949521 109.305603 C 116.280836 110.22386 113.302238 110.682989 110.025208 110.682989 Z M 140.729437 50.376439 C 139.558659 50.376439 138.428054 50.158353 137.337624 49.716442 C 136.26441 49.257313 135.328936 48.626011 134.5312 47.828275 C 133.733464 47.0248 133.102162 46.106543 132.643033 45.073503 C 132.183905 44.017507 131.95434 42.858207 131.95434 41.601343 C 131.95434 40.344478 132.183905 39.196656 132.643033 38.157878 C 133.102162 37.101882 133.733464 36.177885 134.5312 35.380149 C 135.328936 34.576674 136.26441 33.956851 137.337624 33.514939 C 138.428054 33.055811 139.558659 32.826246 140.729437 32.826246 C 143.180036 32.826246 145.269071 33.687112 147.008021 35.403106 C 148.758449 37.101882 149.630794 39.167961 149.630794 41.601343 C 149.630794 44.034725 148.758449 46.106543 147.008021 47.828275 C 145.269071 49.527051 143.180036 50.376439 140.729437 50.376439 Z M 133.945811 109.00143 L 133.945811 57.802845 L 147.645062 57.802845 L 147.645062 109.00143 Z M 133.945811 109.00143 " stroke="#0f503c" stroke-width="2.873475" stroke-opacity="1" stroke-miterlimit="4"/></g><g fill="#0f503c" fill-opacity="1"><g transform="translate(129.226043, 62.002933)"><g><path d="M 0.859375 -50.921875 L 11.234375 -50.921875 L 21.765625 -20.265625 L 23.609375 -13.734375 L 24.1875 -13.734375 L 26.171875 -20.265625 L 37.125 -50.921875 L 47.515625 -50.921875 L 28.953125 0 L 18.84375 0 Z M 0.859375 -50.921875 "/></g></g></g><g fill="#0f503c" fill-opacity="1"><g transform="translate(172.74871, 62.002933)"><g><path d="M 9.171875 -39.90625 C 8.367188 -39.90625 7.597656 -40.054688 6.859375 -40.359375 C 6.128906 -40.671875 5.488281 -41.097656 4.9375 -41.640625 C 4.394531 -42.191406 3.96875 -42.820312 3.65625 -43.53125 C 3.351562 -44.238281 3.203125 -45.019531 3.203125 -45.875 C 3.203125 -46.726562 3.351562 -47.507812 3.65625 -48.21875 C 3.96875 -48.9375 4.394531 -49.566406 4.9375 -50.109375 C 5.488281 -50.648438 6.128906 -51.070312 6.859375 -51.375 C 7.597656 -51.6875 8.367188 -51.84375 9.171875 -51.84375 C 10.835938 -51.84375 12.257812 -51.257812 13.4375 -50.09375 C 14.625 -48.9375 15.21875 -47.53125 15.21875 -45.875 C 15.21875 -44.21875 14.625 -42.804688 13.4375 -41.640625 C 12.257812 -40.484375 10.835938 -39.90625 9.171875 -39.90625 Z M 4.546875 0 L 4.546875 -34.84375 L 13.875 -34.84375 L 13.875 0 Z M 4.546875 0 "/></g></g></g><g fill="#0f503c" fill-opacity="1"><g transform="translate(186.33158, 62.002933)"><g><path d="M 17.78125 1.140625 C 15.507812 1.140625 13.484375 0.851562 11.703125 0.28125 C 9.921875 -0.28125 8.378906 -1.023438 7.078125 -1.953125 C 5.773438 -2.878906 4.671875 -3.945312 3.765625 -5.15625 C 2.867188 -6.363281 2.179688 -7.582031 1.703125 -8.8125 L 10.03125 -12.375 C 10.832031 -10.570312 11.910156 -9.234375 13.265625 -8.359375 C 14.617188 -7.484375 16.125 -7.046875 17.78125 -7.046875 C 19.488281 -7.046875 20.835938 -7.351562 21.828125 -7.96875 C 22.828125 -8.582031 23.328125 -9.316406 23.328125 -10.171875 C 23.328125 -11.117188 22.910156 -11.890625 22.078125 -12.484375 C 21.253906 -13.078125 19.820312 -13.609375 17.78125 -14.078125 L 12.875 -15.15625 C 11.78125 -15.382812 10.648438 -15.757812 9.484375 -16.28125 C 8.328125 -16.800781 7.273438 -17.460938 6.328125 -18.265625 C 5.378906 -19.078125 4.597656 -20.050781 3.984375 -21.1875 C 3.367188 -22.332031 3.0625 -23.660156 3.0625 -25.171875 C 3.0625 -26.878906 3.425781 -28.394531 4.15625 -29.71875 C 4.894531 -31.050781 5.90625 -32.179688 7.1875 -33.109375 C 8.46875 -34.035156 9.972656 -34.742188 11.703125 -35.234375 C 13.429688 -35.734375 15.289062 -35.984375 17.28125 -35.984375 C 20.601562 -35.984375 23.566406 -35.332031 26.171875 -34.03125 C 28.773438 -32.726562 30.695312 -30.65625 31.9375 -27.8125 L 23.890625 -24.53125 C 23.234375 -25.90625 22.265625 -26.898438 20.984375 -27.515625 C 19.703125 -28.140625 18.421875 -28.453125 17.140625 -28.453125 C 15.816406 -28.453125 14.65625 -28.175781 13.65625 -27.625 C 12.65625 -27.082031 12.15625 -26.382812 12.15625 -25.53125 C 12.15625 -24.726562 12.570312 -24.085938 13.40625 -23.609375 C 14.238281 -23.140625 15.363281 -22.710938 16.78125 -22.328125 L 22.125 -21.046875 C 25.675781 -20.191406 28.316406 -18.828125 30.046875 -16.953125 C 31.773438 -15.085938 32.640625 -12.875 32.640625 -10.3125 C 32.640625 -8.789062 32.285156 -7.34375 31.578125 -5.96875 C 30.867188 -4.59375 29.859375 -3.375 28.546875 -2.3125 C 27.242188 -1.25 25.679688 -0.410156 23.859375 0.203125 C 22.035156 0.828125 20.007812 1.140625 17.78125 1.140625 Z M 17.78125 1.140625 "/></g></g></g><g fill="#0f503c" fill-opacity="1"><g transform="translate(215.844415, 62.002933)"><g><path d="M 9.171875 -39.90625 C 8.367188 -39.90625 7.597656 -40.054688 6.859375 -40.359375 C 6.128906 -40.671875 5.488281 -41.097656 4.9375 -41.640625 C 4.394531 -42.191406 3.96875 -42.820312 3.65625 -43.53125 C 3.351562 -44.238281 3.203125 -45.019531 3.203125 -45.875 C 3.203125 -46.726562 3.351562 -47.507812 3.65625 -48.21875 C 3.96875 -48.9375 4.394531 -49.566406 4.9375 -50.109375 C 5.488281 -50.648438 6.128906 -51.070312 6.859375 -51.375 C 7.597656 -51.6875 8.367188 -51.84375 9.171875 -51.84375 C 10.835938 -51.84375 12.257812 -51.257812 13.4375 -50.09375 C 14.625 -48.9375 15.21875 -47.53125 15.21875 -45.875 C 15.21875 -44.21875 14.625 -42.804688 13.4375 -41.640625 C 12.257812 -40.484375 10.835938 -39.90625 9.171875 -39.90625 Z M 4.546875 0 L 4.546875 -34.84375 L 13.875 -34.84375 L 13.875 0 Z M 4.546875 0 "/></g></g></g><g clip-path="url(#ebafcef247)"><path stroke-linecap="butt" transform="matrix(0.98915, 0, 0, 0.98915, 295.172881, -11.728449)" fill="none" stroke-linejoin="miter" d="M 12.865149 43.374867 L 13.445667 43.374867 C 14.543516 41.605671 16.028378 40.207689 17.9042 39.176974 C 19.776073 38.138361 21.904638 37.61708 24.289894 37.61708 C 26.50139 37.61708 28.444347 37.980397 30.118765 38.703082 C 31.801081 39.417869 33.183266 40.436737 34.26137 41.759685 C 35.335525 43.078685 36.14904 44.666223 36.697965 46.514401 C 37.250839 48.350732 37.523326 50.392417 37.523326 52.639455 L 37.523326 74.000134 L 28.116571 74.000134 L 28.116571 53.796541 C 28.116571 51.261219 27.547901 49.381447 26.41451 48.165125 C 25.292965 46.936955 23.654089 46.320895 21.50183 46.320895 C 20.202576 46.320895 19.061286 46.597332 18.077961 47.146257 C 17.094635 47.695182 16.253477 48.437613 15.550537 49.377498 C 14.859444 50.313435 14.334214 51.419183 13.970897 52.690793 C 13.619427 53.954505 13.445667 55.309046 13.445667 56.746518 L 13.445667 74.000134 L 4.019166 74.000134 L 4.019166 38.774166 L 12.865149 38.774166 Z M 12.865149 43.374867 " stroke="#0f503c" stroke-width="1.977247" stroke-opacity="1" stroke-miterlimit="4"/></g><g fill="#0f503c" fill-opacity="1"><g transform="translate(295.172881, 61.468618)"><g><path d="M 12.734375 -30.296875 L 13.296875 -30.296875 C 14.390625 -32.046875 15.859375 -33.429688 17.703125 -34.453125 C 19.554688 -35.472656 21.664062 -35.984375 24.03125 -35.984375 C 26.21875 -35.984375 28.140625 -35.625 29.796875 -34.90625 C 31.453125 -34.195312 32.8125 -33.191406 33.875 -31.890625 C 34.945312 -30.585938 35.753906 -29.023438 36.296875 -27.203125 C 36.847656 -25.378906 37.125 -23.351562 37.125 -21.125 L 37.125 0 L 27.796875 0 L 27.796875 -19.984375 C 27.796875 -22.492188 27.238281 -24.351562 26.125 -25.5625 C 25.019531 -26.769531 23.398438 -27.375 21.265625 -27.375 C 19.984375 -27.375 18.851562 -27.097656 17.875 -26.546875 C 16.90625 -26.003906 16.078125 -25.269531 15.390625 -24.34375 C 14.703125 -23.425781 14.179688 -22.335938 13.828125 -21.078125 C 13.472656 -19.828125 13.296875 -18.488281 13.296875 -17.0625 L 13.296875 0 L 3.984375 0 L 3.984375 -34.84375 L 12.734375 -34.84375 Z M 12.734375 -30.296875 "/></g></g></g><g clip-path="url(#e385cd7b61)"><path fill="#0f503c" d="M 297.914062 42.589844 C 297.027344 41.195312 296.054688 39.867188 294.996094 38.597656 C 293.9375 37.328125 292.804688 36.132812 291.597656 35.007812 C 290.390625 33.882812 289.113281 32.839844 287.773438 31.878906 C 286.433594 30.914062 285.035156 30.039062 283.582031 29.253906 C 282.132812 28.46875 280.636719 27.777344 279.09375 27.183594 C 277.554688 26.585938 275.984375 26.089844 274.382812 25.691406 C 272.777344 25.296875 271.15625 25.003906 269.519531 24.8125 C 267.878906 24.621094 266.230469 24.535156 264.582031 24.550781 C 262.929688 24.535156 261.285156 24.621094 259.644531 24.8125 C 258.003906 25.003906 256.382812 25.296875 254.78125 25.691406 C 253.179688 26.089844 251.605469 26.585938 250.066406 27.183594 C 248.527344 27.777344 247.03125 28.46875 245.578125 29.253906 C 244.128906 30.039062 242.730469 30.914062 241.390625 31.878906 C 240.050781 32.839844 238.773438 33.882812 237.566406 35.007812 C 236.355469 36.132812 235.222656 37.328125 234.167969 38.597656 C 233.109375 39.867188 232.136719 41.195312 231.25 42.589844 C 231.039062 42.957031 230.933594 43.355469 230.933594 43.78125 C 230.933594 44.207031 231.039062 44.605469 231.25 44.972656 C 232.136719 46.363281 233.109375 47.695312 234.167969 48.964844 C 235.222656 50.230469 236.355469 51.429688 237.566406 52.554688 C 238.773438 53.675781 240.050781 54.722656 241.390625 55.683594 C 242.730469 56.648438 244.128906 57.519531 245.578125 58.308594 C 247.03125 59.09375 248.527344 59.785156 250.066406 60.378906 C 251.605469 60.976562 253.179688 61.472656 254.78125 61.867188 C 256.382812 62.265625 258.003906 62.558594 259.644531 62.75 C 261.285156 62.941406 262.929688 63.027344 264.582031 63.007812 C 266.230469 63.027344 267.878906 62.941406 269.519531 62.75 C 271.15625 62.558594 272.777344 62.265625 274.382812 61.867188 C 275.984375 61.472656 277.554688 60.976562 279.09375 60.378906 C 280.636719 59.785156 282.132812 59.09375 283.582031 58.308594 C 285.035156 57.519531 286.433594 56.648438 287.773438 55.683594 C 289.113281 54.722656 290.390625 53.675781 291.597656 52.554688 C 292.804688 51.429688 293.9375 50.230469 294.996094 48.964844 C 296.054688 47.695312 297.027344 46.363281 297.914062 44.972656 C 298.125 44.605469 298.230469 44.207031 298.230469 43.78125 C 298.230469 43.355469 298.125 42.957031 297.914062 42.589844 Z M 264.582031 58.203125 C 263.632812 58.203125 262.695312 58.109375 261.769531 57.925781 C 260.839844 57.738281 259.9375 57.464844 259.0625 57.105469 C 258.1875 56.742188 257.355469 56.296875 256.570312 55.769531 C 255.78125 55.246094 255.054688 54.648438 254.382812 53.976562 C 253.714844 53.308594 253.117188 52.578125 252.589844 51.792969 C 252.066406 51.003906 251.621094 50.175781 251.257812 49.300781 C 250.894531 48.425781 250.621094 47.523438 250.4375 46.59375 C 250.253906 45.664062 250.160156 44.726562 250.160156 43.78125 C 250.160156 42.832031 250.253906 41.894531 250.4375 40.96875 C 250.621094 40.039062 250.894531 39.136719 251.257812 38.261719 C 251.621094 37.386719 252.066406 36.554688 252.589844 35.769531 C 253.117188 34.980469 253.714844 34.253906 254.382812 33.582031 C 255.054688 32.914062 255.78125 32.316406 256.570312 31.789062 C 257.355469 31.265625 258.1875 30.820312 259.0625 30.457031 C 259.9375 30.09375 260.839844 29.820312 261.769531 29.636719 C 262.695312 29.453125 263.632812 29.359375 264.582031 29.359375 C 265.527344 29.359375 266.464844 29.453125 267.394531 29.636719 C 268.324219 29.820312 269.226562 30.09375 270.101562 30.457031 C 270.976562 30.820312 271.804688 31.265625 272.59375 31.789062 C 273.378906 32.316406 274.109375 32.914062 274.777344 33.582031 C 275.449219 34.253906 276.046875 34.980469 276.570312 35.769531 C 277.097656 36.554688 277.542969 37.386719 277.90625 38.261719 C 278.265625 39.136719 278.539062 40.039062 278.726562 40.96875 C 278.910156 41.894531 279.003906 42.832031 279.003906 43.78125 C 279 44.726562 278.910156 45.664062 278.722656 46.59375 C 278.539062 47.519531 278.261719 48.421875 277.902344 49.296875 C 277.539062 50.171875 277.09375 51.003906 276.566406 51.789062 C 276.042969 52.574219 275.445312 53.304688 274.773438 53.972656 C 274.105469 54.644531 273.375 55.242188 272.589844 55.765625 C 271.800781 56.292969 270.972656 56.738281 270.097656 57.101562 C 269.222656 57.460938 268.320312 57.738281 267.394531 57.921875 C 266.464844 58.109375 265.527344 58.199219 264.582031 58.203125 Z M 271.792969 43.78125 C 271.792969 44.253906 271.746094 44.722656 271.652344 45.1875 C 271.5625 45.652344 271.425781 46.101562 271.242188 46.539062 C 271.0625 46.976562 270.839844 47.394531 270.578125 47.785156 C 270.3125 48.179688 270.015625 48.542969 269.679688 48.878906 C 269.34375 49.214844 268.980469 49.511719 268.585938 49.777344 C 268.195312 50.039062 267.777344 50.261719 267.339844 50.441406 C 266.902344 50.625 266.453125 50.761719 265.988281 50.851562 C 265.523438 50.945312 265.054688 50.992188 264.582031 50.992188 C 264.109375 50.992188 263.640625 50.945312 263.175781 50.851562 C 262.710938 50.761719 262.257812 50.625 261.820312 50.441406 C 261.382812 50.261719 260.96875 50.039062 260.574219 49.777344 C 260.183594 49.511719 259.816406 49.214844 259.484375 48.878906 C 259.148438 48.542969 258.847656 48.179688 258.585938 47.785156 C 258.324219 47.394531 258.101562 46.976562 257.917969 46.539062 C 257.738281 46.101562 257.601562 45.652344 257.507812 45.1875 C 257.417969 44.722656 257.371094 44.253906 257.371094 43.78125 C 257.371094 43.308594 257.417969 42.839844 257.507812 42.375 C 257.601562 41.910156 257.738281 41.457031 257.917969 41.019531 C 258.101562 40.582031 258.324219 40.167969 258.585938 39.773438 C 258.847656 39.382812 259.148438 39.015625 259.484375 38.683594 C 259.816406 38.347656 260.183594 38.046875 260.574219 37.785156 C 260.96875 37.523438 261.382812 37.300781 261.820312 37.117188 C 262.257812 36.9375 262.710938 36.800781 263.175781 36.707031 C 263.640625 36.617188 264.109375 36.570312 264.582031 36.570312 C 265.054688 36.570312 265.523438 36.617188 265.988281 36.710938 C 266.453125 36.804688 266.902344 36.941406 267.339844 37.121094 C 267.777344 37.300781 268.191406 37.523438 268.585938 37.789062 C 268.980469 38.050781 269.34375 38.351562 269.679688 38.683594 C 270.011719 39.019531 270.3125 39.382812 270.574219 39.777344 C 270.835938 40.171875 271.058594 40.585938 271.242188 41.023438 C 271.421875 41.460938 271.558594 41.910156 271.652344 42.375 C 271.746094 42.839844 271.792969 43.308594 271.792969 43.78125 Z M 271.792969 43.78125 " fill-opacity="1" fill-rule="nonzero"/></g></svg>